# xmcd CD database file
# Copyright (C) 1993-1998 Ti Kan
#
# Track frame offsets:
#	150
#	16790
#	31470
#	46565
#	59840
#	72007
#	85872
#	101832
#	114962
#	125952
#
# Disc length: 1867 seconds
#
# Revision: 1
# Processed by: cddbd v1.4b41PL1 Copyright (c) Steve Scherf et al.
# Submitted via: QuintessentialCD v1.0 (c) 1998 Paul Quinn
#
DISCID=8107490a
DTITLE=Muddy Waters - Muddy, Brass and the Blues
DYEAR=1900
DGENRE=
TTITLE0=Corine, Corina
TTITLE1=Piney Brown Blues
TTITLE2=Black Night
TTITLE3=Trouble in Mind
TTITLE4=Going Back to Memphis
TTITLE5=Betty and Dupree
TTITLE6=Sweet Little Angel
TTITLE7=Take my Advice
TTITLE8=Trouble
TTITLE9=Hard Loser
EXTD=
EXTT0=
EXTT1=
EXTT2=
EXTT3=
EXTT4=
EXTT5=
EXTT6=
EXTT7=
EXTT8=
EXTT9=
PLAYORDER=
